<svg width="34" height="33" viewBox="0 0 34 33" fill="none" xmlns="http://www.w3.org/2000/svg">
<path fill-rule="evenodd" clip-rule="evenodd" d="M32.6817 31.8545C31.9396 32.6171 30.7197 32.6337 29.9571 31.8916L16.6138 18.9073L3.27062 31.8916C2.50796 32.6337 1.28809 32.6171 0.545958 31.8545C-0.196179 31.0918 -0.179548 29.8719 0.583103 29.1298L13.851 16.2188L0.583048 3.30771C-0.179603 2.56557 -0.196233 1.3457 0.545903 0.583048C1.28804 -0.179603 2.50791 -0.196234 3.27056 0.545903L16.6138 13.5303L29.9571 0.545903C30.7198 -0.196234 31.9396 -0.179603 32.6818 0.583048C33.4239 1.3457 33.4073 2.56557 32.6446 3.30771L19.3767 16.2188L32.6446 29.1298C33.4072 29.8719 33.4239 31.0918 32.6817 31.8545Z" fill="white"/>
</svg>
