<svg width="9" height="6" viewBox="0 0 9 6" fill="none" xmlns="http://www.w3.org/2000/svg">
<path d="M4.14878 5.14293L0.144512 1.13866C0.0512195 1.04536 0 0.920975 0 0.789267C0 0.65756 0.0512195 0.53317 0.144512 0.441706L0.439024 0.147194C0.631098 -0.044879 0.943902 -0.044879 1.13415 0.147194L4.49817 3.51122L7.86585 0.143536C7.95732 0.0502429 8.08171 -0.000976563 8.21341 -0.000976563C8.34512 -0.000976563 8.46951 0.0502429 8.56098 0.143536L8.85549 0.438048C8.94878 0.53134 9 0.653901 9 0.785609C9 0.917316 8.94878 1.04171 8.85549 1.13317L4.84756 5.14293C4.75427 5.23622 4.62988 5.28744 4.49817 5.28561C4.36646 5.28744 4.24207 5.23622 4.14878 5.14293Z" fill="black"/>
<path d="M4.14878 5.14293L0.144512 1.13866C0.0512195 1.04536 0 0.920975 0 0.789267C0 0.65756 0.0512195 0.53317 0.144512 0.441706L0.439024 0.147194C0.631098 -0.044879 0.943902 -0.044879 1.13415 0.147194L4.49817 3.51122L7.86585 0.143536C7.95732 0.0502429 8.08171 -0.000976563 8.21341 -0.000976563C8.34512 -0.000976563 8.46951 0.0502429 8.56098 0.143536L8.85549 0.438048C8.94878 0.53134 9 0.653901 9 0.785609C9 0.917316 8.94878 1.04171 8.85549 1.13317L4.84756 5.14293C4.75427 5.23622 4.62988 5.28744 4.49817 5.28561C4.36646 5.28744 4.24207 5.23622 4.14878 5.14293Z" fill="black"/>
<path d="M4.14878 5.14293L0.144512 1.13866C0.0512195 1.04536 0 0.920975 0 0.789267C0 0.65756 0.0512195 0.53317 0.144512 0.441706L0.439024 0.147194C0.631098 -0.044879 0.943902 -0.044879 1.13415 0.147194L4.49817 3.51122L7.86585 0.143536C7.95732 0.0502429 8.08171 -0.000976563 8.21341 -0.000976563C8.34512 -0.000976563 8.46951 0.0502429 8.56098 0.143536L8.85549 0.438048C8.94878 0.53134 9 0.653901 9 0.785609C9 0.917316 8.94878 1.04171 8.85549 1.13317L4.84756 5.14293C4.75427 5.23622 4.62988 5.28744 4.49817 5.28561C4.36646 5.28744 4.24207 5.23622 4.14878 5.14293Z" fill="black"/>
</svg>
